<svg xmlns="http://www.w3.org/2000/svg" xmlns:xlink="http://www.w3.org/1999/xlink" width="192" height="192" viewBox="0 0 192 192">
  <defs>
    <linearGradient id="linear-gradient" x1="1" y1="1" x2="0" gradientUnits="objectBoundingBox">
      <stop offset="0" stop-color="#4a7fff"/>
      <stop offset="1" stop-color="#85caff"/>
    </linearGradient>
  </defs>
  <g id="Gruppe_5" data-name="Gruppe 5" transform="translate(-84 -103)">
    <rect id="Rechteck_9" data-name="Rechteck 9" width="192" height="192" rx="64" transform="translate(84 103)" fill="url(#linear-gradient)"/>
    <g id="Gruppe_4" data-name="Gruppe 4">
      <path id="Rechteck_5" data-name="Rechteck 5" d="M32,0h0a0,0,0,0,1,0,0V32a0,0,0,0,1,0,0H0a0,0,0,0,1,0,0v0A32,32,0,0,1,32,0Z" transform="translate(123 143)" fill="#fff"/>
      <rect id="Rechteck_5-2" data-name="Rechteck 5" width="32" height="32" transform="translate(163 143)" fill="#fff"/>
      <path id="Rechteck_5-3" data-name="Rechteck 5" d="M0,0H0A32,32,0,0,1,32,32v0a0,0,0,0,1,0,0H0a0,0,0,0,1,0,0V0A0,0,0,0,1,0,0Z" transform="translate(203 143)" fill="#fff"/>
      <rect id="Rechteck_5-4" data-name="Rechteck 5" width="32" height="32" transform="translate(123 183)" fill="#fff"/>
      <rect id="Rechteck_5-5" data-name="Rechteck 5" width="32" height="32" transform="translate(163 183)" fill="#fff"/>
      <rect id="Rechteck_5-6" data-name="Rechteck 5" width="32" height="32" transform="translate(203 183)" fill="#fff"/>
      <path id="Rechteck_5-7" data-name="Rechteck 5" d="M0,0H32a0,0,0,0,1,0,0V32a0,0,0,0,1,0,0h0A32,32,0,0,1,0,0V0A0,0,0,0,1,0,0Z" transform="translate(123 223)" fill="#fff"/>
      <rect id="Rechteck_5-8" data-name="Rechteck 5" width="32" height="32" transform="translate(163 223)" fill="#fff"/>
      <path id="Rechteck_5-9" data-name="Rechteck 5" d="M0,0H32a0,0,0,0,1,0,0V0A32,32,0,0,1,0,32H0a0,0,0,0,1,0,0V0A0,0,0,0,1,0,0Z" transform="translate(203 223)" fill="#fff"/>
    </g>
  </g>
</svg>
