<svg xmlns="http://www.w3.org/2000/svg" width="31" height="31" viewBox="0 0 31 31">
  <g id="Gruppe_4" data-name="Gruppe 4" transform="translate(-0.141 0.087)">
    <path id="Rechteck_5" data-name="Rechteck 5" d="M9,0H9A0,0,0,0,1,9,0V9A0,0,0,0,1,9,9H0A0,0,0,0,1,0,9V9A9,9,0,0,1,9,0Z" transform="translate(0.141 -0.087)" fill="#fff"/>
    <rect id="Rechteck_5-2" data-name="Rechteck 5" width="9" height="9" transform="translate(11.141 -0.087)" fill="#fff"/>
    <path id="Rechteck_5-3" data-name="Rechteck 5" d="M0,0H0A9,9,0,0,1,9,9V9A0,0,0,0,1,9,9H0A0,0,0,0,1,0,9V0A0,0,0,0,1,0,0Z" transform="translate(22.141 -0.087)" fill="#fff"/>
    <rect id="Rechteck_5-4" data-name="Rechteck 5" width="9" height="9" transform="translate(0.141 10.913)" fill="#fff"/>
    <rect id="Rechteck_5-5" data-name="Rechteck 5" width="9" height="9" transform="translate(11.141 10.913)" fill="#fff"/>
    <rect id="Rechteck_5-6" data-name="Rechteck 5" width="9" height="9" transform="translate(22.141 10.913)" fill="#fff"/>
    <path id="Rechteck_5-7" data-name="Rechteck 5" d="M0,0H9A0,0,0,0,1,9,0V9A0,0,0,0,1,9,9H9A9,9,0,0,1,0,0V0A0,0,0,0,1,0,0Z" transform="translate(0.141 21.913)" fill="#fff"/>
    <rect id="Rechteck_5-8" data-name="Rechteck 5" width="9" height="9" transform="translate(11.141 21.913)" fill="#fff"/>
    <path id="Rechteck_5-9" data-name="Rechteck 5" d="M0,0H9A0,0,0,0,1,9,0V0A9,9,0,0,1,0,9H0A0,0,0,0,1,0,9V0A0,0,0,0,1,0,0Z" transform="translate(22.141 21.913)" fill="#fff"/>
  </g>
</svg>
