<svg width="17" height="17" viewBox="0 0 17 17" fill="#707070" xmlns="http://www.w3.org/2000/svg">
<path fill-rule="evenodd" clip-rule="evenodd" d="M13 6.5C13 10.0899 10.0899 13 6.5 13C2.91015 13 0 10.0899 0 6.5C0 2.91015 2.91015 0 6.5 0C10.0899 0 13 2.91015 13 6.5ZM11 6.5C11 8.98528 8.98528 11 6.5 11C4.01472 11 2 8.98528 2 6.5C2 4.01472 4.01472 2 6.5 2C8.98528 2 11 4.01472 11 6.5Z"/>
<path d="M15.2426 16.6569L11.0491 12.4633C11.581 12.057 12.057 11.581 12.4633 11.0491L16.6569 15.2426C17.0474 15.6332 17.0474 16.2663 16.6569 16.6569C16.2663 17.0474 15.6332 17.0474 15.2426 16.6569Z"/>
</svg>
